Patient4_TMGait_0pt7_01_left_12_EMG.mot
version=1
nRows=23
nColumns=33
inDegrees=no
endheader
time	1LAddLong	2LGlutMax	3LGlutMed	4LIliopsoas	5LSemiMemb	6LBicFemLong	7LRecFem	8LVastMed	9LVastLat	10LGasMed	11LTibAnt	12lTibPost	13LPeroneusLong	14LSol	15LExtDigLong	16LFlexDigLong	17RAddLong	18RGlutMax	19RGlutMed	20RIliopsoas	21RSemiMemb	22RBicFemLong	23RRecFem	24RVastMed	25RVastLat	26RGasMed	27RTibAnt	28RTibPost	29RPeroneusLong	30RSol	31RExtDigLong	32RFlexDigLong
14.983	0.009918	0.13336	-0.081635	0.011597	0.001526	-0.086365	-0.051575	0.004425	0.11627	-0.044861	0.050964	0.002136	0.10864	0.020905	-0.069733	0.002594	-0.00885	0.097656	0.20432	-0.14801	-0.004425	-0.13672	-0.18402	-0.22919	-0.24994	-0.000458	0.078735	-0.012817	-0.093231	-0.077515	-0.001068	0.0177
14.984	0.014343	0.14648	-0.026245	0.002289	-0.00061	-0.075989	-0.068054	0.006866	0.10757	-0.018311	0.035706	0.000153	0.0737	0.017242	0.066681	-0.007019	-0.006409	0.094757	0.39459	-0.034332	0.002594	-0.14999	-0.32318	-0.09079	-0.038147	0.001068	0.10239	-0.010529	0.022278	-0.083466	-0.002899	0.014496
14.985	0.010223	0.14542	0.026398	0.007477	-0.010834	-0.06897	-0.048065	0.002289	0.10056	-0.029297	0.032043	-0.006714	0.05722	-0.002747	0.41824	-0.003052	0.005798	0.093842	1.4671	-0.039673	0.001831	-0.18173	-0.35629	0.07843	0.090942	0.005646	-0.36911	-0.011749	0.2211	-0.13016	0.000763	0.012512
14.986	0.011292	0.16052	0.03479	0.001678	0.005188	-0.064087	-0.054169	0.004578	0.096588	-0.040588	0.028534	0.001221	0.058594	-0.000153	0.35126	-0.000763	-0.001068	0.006409	1.0948	0.000458	-0.000458	-0.18601	-0.2063	0.23377	-0.10361	0.0177	-0.56366	-0.007019	0.29526	-0.11856	-0.002289	0.011444
14.987	0.007935	0.20584	0.018158	0.001984	0.013733	0.001373	-0.069733	0.000763	0.084229	-0.039368	0.023346	0.004272	0.039825	0.013123	-0.31067	0.002289	-0.007935	-0.062103	0.63385	-0.13718	0.011597	-0.18829	-0.35416	0.28122	-0.024414	0.003204	-0.32394	-0.01236	0.21866	0.044403	-0.002747	0.018158
14.988	0.012207	0.22263	-0.010834	-0.006561	0.000305	0.031891	-0.043182	0.00824	0.091858	-0.036469	0.080414	-0.000458	0.028839	-0.001831	-0.098572	0.000763	-0.028381	-0.058899	0.2861	-0.10468	0.022736	-0.17441	-0.32181	0.53757	0.15686	0.005493	-0.5011	-0.012054	0.004578	-0.003815	-0.002747	0.016022
14.989	0.007935	0.20218	0.005341	0.003204	-0.016479	0.05127	-0.045776	0.001373	0.078278	-0.027008	0.16113	0.006256	0.038452	0.0177	-0.3273	0.011597	-0.008698	-0.0737	-0.39825	-0.049744	0.015259	-0.19409	-0.4567	0.44739	0.057678	0.004425	-0.5571	0.000153	-0.037689	-0.090942	0.001373	0.01297
14.99	0.016327	0.22018	-0.012665	0.009155	-0.024719	0.030365	-0.047607	0.006561	0.094604	-0.03006	0.17532	0.010223	0.072632	0.012512	-0.24109	0.00412	0.005188	-0.005188	-0.41214	-0.028992	-0.007935	-0.23285	-0.59387	0.10407	-0.00824	0.005646	-0.043793	-0.010376	0.14832	-0.019379	-0.004578	0.014038
14.991	0.013733	0.23758	-0.020447	0.011749	-0.035706	-0.019684	-0.056763	0.002441	0.081329	-0.014496	-0.014801	0.006561	0.056915	-0.023804	-0.10483	0.002747	0.009766	0.007935	-0.066223	0.059814	-0.007935	-0.2626	-0.35324	-0.49545	0.033417	0.002136	0.103	-0.007782	0.2243	-0.016327	0	0.001526
14.992	0.011902	0.26108	-0.057983	0.011597	-0.035706	-0.074158	-0.054626	0.005188	0.087128	-0.024414	-0.25223	-0.003815	0.10361	-0.050812	-0.028839	0.003967	0.019226	0.060577	0.26703	0.10147	-0.013123	-0.24536	-0.14969	-0.42221	0.031128	0.005798	-0.10422	-0.001526	0.25772	-0.17517	-0.000763	0.010071
14.993	0.014191	0.28397	-0.072021	0.006256	-0.052185	-0.10193	-0.076141	0.006256	0.061951	-0.029907	-0.13397	0.005646	0.11749	-0.044861	-0.067139	-0.002594	0.025482	0.081635	0.53406	0.095062	-0.014038	-0.24628	-0.027466	-0.14206	0.078888	0.002136	-0.32288	-0.009613	-0.11002	-0.062103	-0.000153	0.00885
14.994	0.019226	0.30533	-0.055389	0.003662	0.002747	-0.059967	-0.063782	0.005951	0.071869	-0.025787	-0.078583	0.000916	0.090179	-0.024109	-0.007782	0.000305	0.022583	0.098877	0.36636	0.12116	-0.007629	-0.24063	0.079651	-0.068512	0.20294	0.008392	-0.26306	-0.00946	-0.44052	0.089874	-0.001526	0.007172
14.995	0.008087	0.25879	0.037994	-0.010376	0.014648	-0.037079	-0.077515	0.005035	0.053711	-0.020294	-0.040741	0.003967	0.066681	-0.050659	-0.01358	-0.006409	-0.002136	0.091858	0.070343	-0.002441	-0.005798	-0.22186	0.014801	-0.11139	0.23148	-0.000153	-0.034027	-0.009613	-0.33585	0.1712	-0.002136	0.009766
14.996	0.014954	0.22461	0.027771	0.005035	-0.001373	-0.048676	-0.052795	0.005188	0.049133	-0.028687	-0.029755	0.003052	0.05722	-0.087738	-0.022125	-0.001526	0.003967	0.015564	-0.59357	-0.046539	0.006866	-0.2272	-0.037384	-0.033417	0.13153	-0.003357	0.19272	-0.009613	0.011902	0.16678	-0.004578	0.004425
14.997	0.001373	0.21255	0.012054	-0.003357	-0.016785	-0.043945	-0.058289	0.005341	0.044403	-0.035095	-0.019531	0.008392	0.041656	-0.097656	-0.057068	-0.004272	0.007629	0.13977	-0.35156	-0.088348	0.004578	-0.22919	-0.009613	0.11032	0.17212	0.002441	0.17258	-0.009308	0.046539	0.17441	-0.007477	0.012512
14.998	0.005951	0.1561	-0.006409	0.005646	-0.014801	-0.048981	-0.065613	0.005035	0.036163	-0.036011	0.04303	-0.006714	0.009918	-0.092316	-0.059509	0.011597	0.008087	0.14023	0.31754	-0.048981	-0.000916	-0.24048	0.072937	0.040741	0.1236	-0.002899	0.10132	-0.010071	-0.42572	0.034485	-0.000458	0.006561
14.999	0.011749	0.1503	-0.015717	-0.003357	-0.023193	-0.054474	-0.079803	0.007019	0.044556	-0.016479	0.14023	-0.005035	-0.0383	-0.06485	0.010529	0.005035	0.023041	0.16052	0.20477	0.068054	-0.007019	-0.27084	0.15411	-0.085449	0.059509	0.001221	0.066833	-0.009918	-0.56168	0.050659	-0.002289	0.014648
15	0.016937	0.14984	-0.039063	0.000305	-0.046692	-0.076599	-0.083771	0.002136	0.037231	-0.02655	0.18997	0.001221	-0.020142	-0.092163	0.050659	0.002441	0.025787	0.12192	0.92422	0.11871	0.007324	-0.1915	0.051575	-0.2034	0.037537	0.011902	0.05661	-0.015106	0.19836	0.070801	-0.003967	0.013885
15.001	0.021057	0.14557	-0.1059	-0.011597	-0.012512	-0.046234	-0.08316	0.00061	0.040131	-0.046082	0.015411	0	0.089417	-0.063324	-0.093079	0.013733	0.020599	0.072937	0.45883	0.070801	0.010529	-0.13046	0.076752	-0.22156	0.009766	-0.005188	0.037079	-0.03067	0.54886	0.12192	-0.000305	0.014038
15.002	0.016632	0.13718	-0.15656	0.013275	-0.011139	-0.017242	-0.071869	0.002899	0.028076	-0.029449	-0.21896	0.006866	0.14069	-0.024719	0.076447	0.012512	-0.020599	-0.030518	0.26566	-0.011139	0.001984	-0.07019	0.20401	-0.25345	-0.087738	-0.002594	0.037384	-0.078125	0.26642	0.12009	-0.002899	0.012512
15.003	0.011292	0.11612	-0.21561	0.014343	-0.012665	-0.041351	-0.066223	0.009918	0.016479	-0.018616	-0.24963	-0.010834	0.047455	0.018616	0.12711	-0.003967	-0.025787	-0.028381	-0.09964	0.03952	-0.010223	-0.00412	0.30289	-0.29709	0.052643	-0.007019	0.05249	0.027466	0.06424	0.14999	-0.006561	0.014191
15.004	0.006256	0.12772	-0.18646	0.033569	0.011292	-0.031433	-0.061798	0.006561	0.012665	-0.018616	-0.2298	-0.005188	0.00061	0.016632	0.41428	-0.000153	-0.024414	-0.069122	-0.22675	0.1593	-0.002441	0.0737	0.13718	-0.1445	0.28778	-0.016632	0.059662	0.094757	0.14526	0.040894	-0.004578	0.008087
15.005	0.011292	0.11444	-0.025482	0.015259	-0.033569	0.014191	-0.067596	0.002594	0.023346	-0.024567	-0.14053	0.006409	0.012512	-0.019226	-0.076294	0.018158	-0.042572	-0.014801	0.39154	0.14603	0.024872	0.12299	-0.11704	0.10666	0.34103	-0.011292	0.030975	0.030212	0.17532	-0.11627	-0.003815	0.005493
